# xmcd
#
# Track frame offsets:
#	150
#	13860
#	25040
#	39190
#	56220
#	66942
#	84002
#	95770
#	107297
#	122875
#	137685
#	149810
#	160155
#	176875
#
# Disc length: 2552
#
# Revision: 1
# Processed by: cddbd v1.5.1PL0 Copyright (c) Steve Scherf et al.
# Submitted via: VisiTrax 2.9.5.180 - For more info visit www.synapsa.com
# Normalized: r0:DSETVAR1
#
DISCID=be09f60e
DTITLE=Various Artist - Mr Music Countruy 05-91
DYEAR=1991
DGENRE=Country
TTITLE0=Marty Stuart - Blue Train
TTITLE1=Mark Collie - Bound To ramble
TTITLE2=Marsha Thornton - In The Palm Of Your Hand
TTITLE3=Tom Russel - Winnpeg
TTITLE4=Cody Austin - Feelin' More Haggard Than Merle
TTITLE5=Patty Loveless - You Can't Run Away From Your Heart
TTITLE6=Jason Hawkins - Born To Sing The Blues
TTITLE7=Alberta Babcock - Guess Who Doesn't Love You Anymore
TTITLE8=Micke Muster - Hotel Waitres
TTITLE9=Trond Granlund - I'm A Long Gone daddy
TTITLE10=Waylon Jennings - You deserve The Stars In My Crown
TTITLE11=Terry Wooley - Pass That Bottle Around
TTITLE12=Henning Stærk - Who'll Stop The rain
TTITLE13=Mike calhoun - Hank Williams You Wrote My Life
EXTD=
EXTT0=
EXTT1=
EXTT2=
EXTT3=
EXTT4=
EXTT5=
EXTT6=
EXTT7=
EXTT8=
EXTT9=
EXTT10=
EXTT11=
EXTT12=
EXTT13=
PLAYORDER=
